# Blender v2.79 (sub 0) OBJ File: ''
# www.blender.org
mtllib person.mtl
o Person_Cube
v 0.368837 -5.819283 -1.000000
v -0.227086 -5.842245 -0.849002
v 0.517196 0.947442 -2.199493
v -0.667447 0.947442 -2.199493
v 0.475261 -5.851491 -0.526471
v 0.969792 -0.052558 -1.224744
v -1.224745 -0.052558 -1.224745
v 0.000000 1.172187 -2.424238
v 0.000000 -0.052558 -1.732050
v 0.500711 2.495760 -1.749850
v -0.227086 -5.842245 -0.849002
v -1.106423 1.053865 -0.526471
v 0.475261 -5.851491 -0.526471
v 1.106423 1.053865 -0.526470
v -1.464969 -0.052558 -0.644792
v 1.149607 -0.052558 -0.644792
v 0.000000 1.412411 -0.644792
v 0.368837 -5.819283 -1.000000
v 0.748465 -1.692676 -0.918624
v -0.652547 -1.692676 -0.918625
v 0.000000 -2.054657 -1.269153
v 0.611280 -1.744485 -0.587191
v -1.290422 -1.744485 -0.587191
v 0.519854 -1.944023 -0.358622
v 1.144691 1.092133 -0.356200
v 1.185163 -0.052558 -0.436254
v 0.000000 2.074864 -0.436254
v -1.144691 -1.973448 -0.356200
v -1.144691 1.092133 -0.356200
v -1.551348 -0.052558 -0.436255
v 0.000000 -1.944085 -0.436255
v -1.353380 -1.474341 -0.397283
v 0.889059 -1.491902 -0.381491
v 0.635933 0.545801 -2.446256
v -0.625053 0.545801 -2.446256
v 0.000000 0.085878 -2.518993
v 1.040895 0.469325 -0.588981
v -1.295848 0.469325 -0.588982
v -1.359534 0.487376 -0.398494
v 1.104581 0.487376 -0.398494
v 0.571377 -4.112254 -0.533630
v -0.599713 -4.112254 -0.533630
v 0.456858 -4.012271 -1.013599
v -0.485194 -4.012271 -1.013600
v 0.000000 -4.134726 -1.253175
v -1.169297 -1.914598 -0.361044
v 0.037761 -4.025651 -0.546138
v 0.475261 -5.851491 -0.526471
v -0.227086 -5.842245 -0.849002
v 0.368837 -5.819283 -1.000000
v 1.117228 0.233773 -0.614171
v -1.372181 0.233773 -0.614172
v -1.446110 0.243676 -0.415538
v 1.191157 0.243676 -0.415537
v 1.166584 0.206231 -1.824683
v -1.166583 0.206231 -1.824684
v 0.000000 0.264393 -1.900339
v 0.517197 0.653761 -3.043002
v -0.506317 0.653761 -3.043002
v 0.000001 0.675056 -3.267747
v 0.635933 -0.220670 -2.554060
v -0.625053 -0.220670 -2.554061
v 0.000000 -0.300435 -2.602568
v 0.517197 -0.112710 -3.150806
v -0.506317 -0.112710 -3.150806
v 0.000001 -0.091415 -3.375551
v 0.635933 -0.781505 -2.576217
v -0.625053 -0.781505 -2.576218
v 0.000001 -0.861270 -2.624725
v 0.517197 -0.673545 -3.172963
v -0.506317 -0.673545 -3.172963
v 0.000001 -0.652250 -3.397708
v 0.635933 -1.789671 -2.609442
v -0.625053 -1.789671 -2.609442
v 0.000001 -1.869436 -2.657950
v 0.517197 -1.681711 -3.206187
v -0.506317 -1.681711 -3.206188
v 0.000001 -1.660416 -3.430933
v 0.635933 -2.314248 -2.317403
v -0.625053 -2.314248 -2.317403
v 0.000001 -2.394013 -2.365911
v 0.517197 -2.206288 -2.914149
v -0.506317 -2.206288 -2.914149
v 0.000001 -2.184993 -3.138894
v 0.496271 2.242131 -0.401547
v 0.000000 2.093549 -0.559691
v -0.648136 1.978202 -0.390927
v 0.414377 3.828871 -1.635295
v 0.394228 3.815624 -1.608060
v -0.750179 3.735842 -1.597439
v -0.702899 2.319335 -1.721073
v 0.912048 -0.918176 -0.865029
v -1.167001 -0.918176 -0.865030
v 0.000000 -1.109221 -1.289592
v 0.978375 -0.945520 -0.295026
v -1.372847 -0.945520 -0.295026
v -1.446865 -0.802944 -0.096321
v 1.108507 -0.802944 -0.096321
v 0.414873 3.220157 -0.484245
v 0.495932 3.213985 -1.696751
v -0.729534 3.117322 -1.651424
v 0.213672 2.146882 -0.421311
v 0.132274 3.216642 -1.174700
v 0.368837 -5.819283 1.000000
v -0.227086 -5.842245 0.849002
v 0.517196 0.947442 2.199493
v -0.667447 0.947442 2.199493
v 0.630860 -1.759010 0.000000
v 0.475261 -5.851491 0.526471
v 0.969792 -0.052558 1.224744
v -1.224745 -1.812249 0.000000
v -1.224745 -0.052558 1.224745
v 1.224745 1.172187 0.000000
v 0.000000 1.172187 2.424238
v -1.224745 1.172187 0.000000
v 0.000000 -0.052558 1.732050
v -1.581337 -0.052558 0.000000
v 1.275379 -0.126331 0.000000
v 0.500711 2.495760 1.749850
v 0.000000 -2.089862 0.000000
v -0.227086 -5.842245 0.849002
v -1.106423 1.053865 0.526471
v 0.475261 -5.851491 0.526471
v 1.106423 1.053865 0.526470
v -1.464969 -0.052558 0.644792
v 1.149607 -0.052558 0.644792
v 0.000000 1.412411 0.644792
v 0.368837 -5.819283 1.000000
v 0.748465 -1.692676 0.918624
v -0.652547 -1.692676 0.918625
v 0.000000 -2.054657 1.269153
v -1.485085 -0.909208 0.000000
v 1.124632 -0.909208 0.000000
v 0.611280 -1.744485 0.587191
v -1.290422 -1.744485 0.587191
v 0.519854 -1.944023 0.358622
v 1.144691 1.092133 0.356200
v 1.185163 -0.052558 0.436254
v 0.000000 2.074864 0.436254
v -1.144691 -1.973448 0.356200
v -1.144691 1.092133 0.356200
v -1.551348 -0.052558 0.436255
v 0.000000 -1.944085 0.436255
v -1.353380 -1.474341 0.397283
v 0.889059 -1.491902 0.381491
v 0.635933 0.545801 2.446256
v -0.625053 0.545801 2.446256
v 0.000000 0.085878 2.518993
v -1.492762 0.525136 0.000000
v 1.237809 0.525136 0.000000
v 1.040895 0.469325 0.588981
v -1.295848 0.469325 0.588982
v -1.359534 0.487376 0.398494
v 1.104581 0.487376 0.398494
v -1.255442 -1.705771 0.000000
v 0.571377 -4.112254 0.533630
v -0.599713 -4.112254 0.533630
v 0.456858 -4.012271 1.013599
v -0.485194 -4.012271 1.013600
v 0.000000 -4.134726 1.253175
v -1.169297 -1.914598 0.361044
v 0.037761 -4.025651 0.546138
v 0.475261 -5.851491 0.526471
v -0.227086 -5.842245 0.849002
v 0.368837 -5.819283 1.000000
v -1.600765 0.264393 0.000000
v 1.243946 0.264393 0.000000
v 1.117228 0.233773 0.614171
v -1.372181 0.233773 0.614172
v -1.446110 0.243676 0.415538
v 1.191157 0.243676 0.415537
v 1.166584 0.206231 1.824683
v -1.166583 0.206231 1.824684
v 0.000000 0.264393 1.900339
v 0.517197 0.653761 3.043002
v -0.506317 0.653761 3.043002
v 0.000001 0.675056 3.267747
v 0.635933 -0.220670 2.554060
v -0.625053 -0.220670 2.554061
v 0.000000 -0.300435 2.602568
v 0.517197 -0.112710 3.150806
v -0.506317 -0.112710 3.150806
v 0.000001 -0.091415 3.375551
v 0.635933 -0.781505 2.576217
v -0.625053 -0.781505 2.576218
v 0.000001 -0.861270 2.624725
v 0.517197 -0.673545 3.172963
v -0.506317 -0.673545 3.172963
v 0.000001 -0.652250 3.397708
v 0.635933 -1.789671 2.609442
v -0.625053 -1.789671 2.609442
v 0.000001 -1.869436 2.657950
v 0.517197 -1.681711 3.206187
v -0.506317 -1.681711 3.206188
v 0.000001 -1.660416 3.430933
v 0.635933 -2.314248 2.317403
v -0.625053 -2.314248 2.317403
v 0.000001 -2.394013 2.365911
v 0.517197 -2.206288 2.914149
v -0.506317 -2.206288 2.914149
v 0.000001 -2.184993 3.138894
v -0.789705 1.898993 0.000000
v 0.496271 2.242131 0.401547
v 0.000000 2.093549 0.559691
v -0.648136 1.978202 0.390927
v 0.683249 2.071192 0.000000
v -0.102043 4.189000 0.000000
v 0.414377 3.828871 1.635295
v -0.891748 3.656633 0.000000
v 0.394228 3.815624 1.608060
v -0.750179 3.735842 1.597439
v 0.581206 3.828833 0.000000
v -0.844468 2.240126 0.000000
v 0.628486 2.412326 0.000000
v -0.702899 2.319335 1.721073
v 0.912048 -0.918176 0.865029
v -1.167001 -0.918176 0.865030
v 0.000000 -1.109221 1.289592
v -1.601708 -0.504679 0.000000
v 1.131441 -0.539516 0.000000
v 0.978375 -0.945520 0.295026
v -1.372847 -0.945520 0.295026
v -1.446865 -0.802944 0.096321
v 1.108507 -0.802944 0.096321
v 0.414873 3.220157 0.484245
v 0.495932 3.213985 1.696751
v -0.871103 3.038113 0.000000
v -0.729534 3.117322 1.651424
v 0.601851 3.210313 0.000000
v 0.213672 2.146882 0.421311
v 0.463573 4.239624 0.000000
v 0.132274 3.216642 1.174700
vn -0.9277 0.2304 -0.2936
vn -0.4672 -0.1444 -0.8723
vn -0.1273 -0.7891 -0.6010
vn 0.1341 -0.8092 -0.5721
vn 0.1005 -0.1263 -0.9869
vn -0.9074 -0.2215 -0.3572
vn 0.9671 -0.2204 -0.1270
vn 0.9627 -0.0117 -0.2703
vn 0.8420 0.4837 -0.2387
vn 0.8196 0.0517 0.5706
vn -0.1039 -0.9945 0.0089
vn 0.2758 -0.9612 0.0089
vn 0.0000 0.0000 1.0000
vn -0.3331 0.9330 -0.1360
vn 0.3627 0.9190 -0.1542
vn 0.9533 0.1360 -0.2696
vn 0.9553 -0.2089 -0.2094
vn -0.9301 -0.2311 -0.2854
vn -0.8935 0.3305 -0.3041
vn -0.9181 -0.2770 0.2834
vn 0.9974 -0.0707 0.0146
vn 0.8218 -0.5416 0.1770
vn -0.7158 -0.1250 -0.6871
vn 0.4292 -0.0234 -0.9029
vn -0.4171 -0.1074 -0.9025
vn 0.9546 -0.1313 0.2673
vn -0.9476 -0.3155 0.0498
vn -0.8850 0.3517 -0.3050
vn -0.9571 -0.1389 -0.2544
vn -0.0906 -0.0685 0.9935
vn 0.0557 -0.0602 0.9966
vn -0.2976 0.2344 -0.9255
vn 0.2955 0.2233 -0.9289
vn 0.9629 -0.0624 -0.2624
vn 0.9230 -0.2588 -0.2849
vn 0.8824 0.3295 -0.3357
vn -0.8754 0.3490 -0.3346
vn -0.8824 0.3295 -0.3357
vn 0.7227 0.6873 -0.0728
vn 0.9554 0.1834 -0.2315
vn 0.9290 0.3494 -0.1216
vn -0.7669 0.6067 -0.2094
vn -0.9464 -0.3182 -0.0551
vn -0.2651 -0.0532 0.9628
vn -0.9526 -0.1578 -0.2601
vn 0.9713 -0.0518 -0.2322
vn 0.0425 -0.1703 0.9845
vn 0.4440 -0.0133 -0.8959
vn -0.4610 -0.0016 -0.8874
vn 0.0201 -0.9972 -0.0723
vn -0.9702 0.0161 -0.2418
vn 0.9858 0.0414 -0.1629
vn 0.9355 -0.3478 -0.0628
vn -0.8760 0.3289 -0.3529
vn -0.9666 0.1425 -0.2130
vn 0.9631 0.0666 -0.2606
vn 0.2295 -0.9478 -0.2213
vn -0.2309 -0.9469 -0.2238
vn 0.9813 0.0268 -0.1904
vn 0.0250 -0.1637 0.9862
vn -0.3389 0.8390 -0.4257
vn 0.3712 0.8407 -0.3941
vn -0.9812 0.0147 -0.1926
vn 0.0723 -0.0394 0.9966
vn 0.3995 0.0362 -0.9160
vn -0.4069 0.1272 -0.9046
vn -0.9813 0.0268 -0.1904
vn -0.0245 -0.1637 0.9862
vn 0.3997 0.1277 -0.9077
vn 0.9810 0.0064 -0.1940
vn -0.9810 0.0064 -0.1940
vn -0.9810 0.0077 -0.1938
vn 0.9810 0.0077 -0.1938
vn -0.4067 0.0361 -0.9128
vn -0.0711 -0.0394 0.9967
vn 0.1288 0.4824 0.8665
vn 0.3384 -0.4577 -0.8222
vn -0.4066 0.0301 -0.9131
vn -0.0719 -0.0329 0.9969
vn 0.3994 0.0302 -0.9163
vn 0.0732 -0.0328 0.9968
vn 0.1042 -0.9669 -0.2328
vn -0.1062 -0.9667 -0.2329
vn -0.9694 -0.1194 -0.2145
vn 0.9694 -0.1194 -0.2145
vn -0.3448 -0.4566 -0.8201
vn -0.1266 0.4825 0.8667
vn -0.3041 0.9417 -0.1437
vn 0.9763 -0.1281 -0.1743
vn -0.1357 0.9796 0.1483
vn -0.8408 0.4802 -0.2499
vn -0.3251 0.9350 0.1415
vn -0.0865 0.9668 -0.2402
vn -0.0418 0.0897 -0.9951
vn -0.9957 -0.0294 -0.0882
vn -0.8861 -0.4379 -0.1516
vn 0.1312 -0.9582 -0.2541
vn 0.9331 -0.3149 -0.1737
vn 0.3254 -0.9295 -0.1738
vn 0.7056 -0.0032 -0.7086
vn -0.9042 -0.0582 -0.4231
vn -0.3629 -0.3681 -0.8560
vn 0.4434 -0.3565 -0.8224
vn -0.9296 0.0367 -0.3666
vn 0.9435 -0.3282 0.0453
vn 0.9477 -0.1232 -0.2946
vn -0.7192 -0.1225 -0.6839
vn -0.9959 -0.0295 -0.0850
vn -0.0394 0.0798 -0.9960
vn 0.9751 0.1800 -0.1299
vn 0.8199 -0.0368 0.5713
vn 0.7296 0.6137 -0.3018
vn 0.9712 0.2169 -0.0991
vn 0.7801 -0.5530 -0.2928
vn -0.9277 0.2304 0.2936
vn -0.4672 -0.1444 0.8723
vn -0.1273 -0.7891 0.6010
vn 0.1341 -0.8092 0.5721
vn 0.1005 -0.1263 0.9869
vn -0.9074 -0.2215 0.3572
vn 0.9671 -0.2204 0.1270
vn 0.9627 -0.0117 0.2703
vn 0.8420 0.4837 0.2387
vn 0.8196 0.0517 -0.5706
vn -0.1039 -0.9945 -0.0089
vn 0.2758 -0.9612 -0.0089
vn -0.3331 0.9330 0.1360
vn 0.3627 0.9190 0.1542
vn 0.9533 0.1360 0.2696
vn 0.9553 -0.2089 0.2094
vn -0.9301 -0.2311 0.2854
vn -0.8935 0.3305 0.3041
vn -0.9181 -0.2770 -0.2834
vn 0.9974 -0.0707 -0.0146
vn 0.8218 -0.5416 -0.1770
vn -0.7158 -0.1250 0.6871
vn 0.4292 -0.0234 0.9029
vn -0.4171 -0.1074 0.9025
vn 0.9546 -0.1313 -0.2673
vn -0.9476 -0.3155 -0.0498
vn -0.8850 0.3517 0.3050
vn -0.9571 -0.1389 0.2544
vn -0.0906 -0.0685 -0.9935
vn 0.0557 -0.0602 -0.9966
vn -0.2976 0.2344 0.9255
vn 0.2955 0.2233 0.9289
vn 0.9629 -0.0624 0.2624
vn 0.9230 -0.2588 0.2849
vn 0.8824 0.3295 0.3357
vn -0.8754 0.3490 0.3346
vn -0.8824 0.3295 0.3357
vn 0.7227 0.6873 0.0728
vn 0.9554 0.1834 0.2315
vn 0.9290 0.3494 0.1216
vn -0.7669 0.6067 0.2094
vn -0.9464 -0.3182 0.0551
vn -0.2651 -0.0532 -0.9628
vn -0.9526 -0.1578 0.2601
vn 0.9713 -0.0518 0.2322
vn 0.0425 -0.1703 -0.9845
vn 0.4440 -0.0133 0.8959
vn -0.4610 -0.0016 0.8874
vn 0.0201 -0.9972 0.0723
vn -0.9702 0.0161 0.2418
vn 0.9858 0.0414 0.1629
vn 0.9355 -0.3477 0.0628
vn -0.8760 0.3289 0.3529
vn -0.9666 0.1425 0.2130
vn 0.9631 0.0666 0.2606
vn 0.2295 -0.9478 0.2213
vn -0.2309 -0.9469 0.2238
vn 0.9813 0.0268 0.1904
vn 0.0250 -0.1637 -0.9862
vn -0.3389 0.8390 0.4257
vn 0.3712 0.8407 0.3941
vn -0.9812 0.0147 0.1926
vn 0.0723 -0.0394 -0.9966
vn 0.3995 0.0362 0.9160
vn -0.4069 0.1272 0.9046
vn -0.9813 0.0268 0.1904
vn -0.0245 -0.1637 -0.9862
vn 0.3997 0.1277 0.9077
vn 0.9810 0.0064 0.1940
vn -0.9810 0.0064 0.1940
vn -0.9810 0.0077 0.1938
vn 0.9810 0.0077 0.1938
vn -0.4067 0.0361 0.9128
vn -0.0711 -0.0394 -0.9967
vn 0.1288 0.4824 -0.8665
vn 0.3384 -0.4577 0.8222
vn -0.4066 0.0301 0.9131
vn -0.0719 -0.0329 -0.9969
vn 0.3994 0.0302 0.9163
vn 0.0732 -0.0328 -0.9968
vn 0.1042 -0.9669 0.2328
vn -0.1062 -0.9667 0.2329
vn -0.9694 -0.1194 0.2145
vn 0.9694 -0.1194 0.2145
vn -0.3448 -0.4566 0.8201
vn -0.1266 0.4825 -0.8667
vn -0.3041 0.9417 0.1437
vn 0.9763 -0.1281 0.1743
vn -0.1357 0.9796 -0.1483
vn -0.8408 0.4802 0.2499
vn -0.3251 0.9350 -0.1415
vn -0.0865 0.9668 0.2402
vn -0.0418 0.0897 0.9951
vn -0.9957 -0.0294 0.0882
vn -0.8861 -0.4379 0.1516
vn 0.1312 -0.9582 0.2541
vn 0.9331 -0.3149 0.1737
vn 0.3254 -0.9295 0.1738
vn 0.7056 -0.0032 0.7086
vn -0.9042 -0.0582 0.4231
vn -0.3629 -0.3681 0.8560
vn 0.4434 -0.3565 0.8224
vn -0.9296 0.0367 0.3666
vn 0.9435 -0.3282 -0.0453
vn 0.9477 -0.1232 0.2946
vn -0.7192 -0.1225 0.6839
vn -0.9959 -0.0295 0.0850
vn -0.0394 0.0798 0.9960
vn 0.9751 0.1800 0.1299
vn 0.8199 -0.0368 -0.5713
vn 0.7296 0.6137 0.3018
vn 0.9712 0.2169 0.0991
vn 0.7801 -0.5530 0.2928
usemtl Material
s off
f 38//1 12//1 4//1 35//1
f 45//2 2//2 44//2
f 57//3 9//3 7//3 56//3
f 55//4 6//4 9//4 57//4
f 43//5 1//5 2//5 45//5
f 96//6 15//6 7//6 93//6
f 98//7 26//7 118//7 220//7
f 40//8 25//8 113//8 150//8
f 25//9 85//9 206//9 113//9
f 103//10 100//10 88//10
f 31//11 120//11 111//11 28//11
f 24//12 108//12 120//12 31//12
f 13//13 2//13 11//13 5//13
f 2//13 1//13 18//13 11//13
f 8//14 4//14 12//14 17//14
f 3//15 8//15 17//15 14//15
f 34//16 3//16 14//16 37//16
f 92//17 6//17 16//17 95//17
f 97//18 30//18 15//18 96//18
f 39//19 29//19 12//19 38//19
f 46//20 32//20 23//20 42//20
f 43//21 19//21 22//21 41//21
f 24//22 33//22 133//22 108//22
f 42//23 23//23 20//23 44//23
f 92//24 19//24 21//24 94//24
f 94//25 21//25 20//25 93//25
f 41//26 22//26 33//26 24//26
f 155//27 132//27 32//27 46//27
f 149//28 115//28 29//28 39//28
f 219//29 117//29 30//29 97//29
f 41//30 24//30 31//30 47//30
f 47//31 31//31 28//31 42//31
f 17//32 12//32 29//32 87//32 86//32
f 14//33 17//33 86//33 85//33 25//33
f 37//34 14//34 25//34 40//34
f 95//35 16//35 26//35 98//35
f 51//36 37//36 40//36 54//36
f 166//37 149//37 39//37 53//37
f 53//38 39//38 38//38 52//38
f 55//39 34//39 37//39 51//39
f 54//40 40//40 150//40 167//40
f 3//41 34//41 58//41
f 52//42 38//42 35//42 56//42
f 111//43 155//43 46//43 28//43
f 13//44 41//44 47//44 2//44
f 2//45 42//45 44//45
f 1//46 43//46 41//46 13//46
f 2//47 47//47 42//47
f 19//48 43//48 45//48 21//48
f 21//49 45//49 44//49 20//49
f 18//13 5//13 48//13 50//13
f 1//13 13//13 5//13 18//13
f 50//50 48//50 49//50
f 11//13 18//13 50//13 49//13
f 5//13 11//13 49//13 48//13
f 15//51 52//51 56//51 7//51
f 26//52 54//52 167//52 118//52
f 6//53 55//53 51//53 16//53
f 30//54 53//54 52//54 15//54
f 117//55 166//55 53//55 30//55
f 16//56 51//56 54//56 26//56
f 34//57 55//57 57//57 36//57
f 36//58 57//58 56//58 35//58
f 58//59 34//59 61//59 64//59
f 36//60 35//60 62//60 63//60
f 4//61 8//61 60//61 59//61
f 8//62 3//62 58//62 60//62
f 35//63 4//63 59//63
f 63//64 62//64 68//64 69//64
f 66//65 64//65 70//65 72//65
f 59//66 60//66 66//66 65//66
f 35//67 59//67 65//67 62//67
f 34//68 36//68 63//68 61//68
f 60//69 58//69 64//69 66//69
f 70//70 67//70 73//70 76//70
f 68//71 71//71 77//71 74//71
f 62//72 65//72 71//72 68//72
f 64//73 61//73 67//73 70//73
f 65//74 66//74 72//74 71//74
f 61//75 63//75 69//75 67//75
f 75//76 74//76 80//76 81//76
f 78//77 76//77 82//77 84//77
f 71//78 72//78 78//78 77//78
f 67//79 69//79 75//79 73//79
f 72//80 70//80 76//80 78//80
f 69//81 68//81 74//81 75//81
f 82//82 79//82 81//82 84//82
f 84//83 81//83 80//83 83//83
f 74//84 77//84 83//84 80//84
f 76//85 73//85 79//85 82//85
f 77//86 78//86 84//86 83//86
f 73//87 75//87 81//87 79//87
f 88//88 90//88 209//88 207//88
f 229//89 99//89 89//89 212//89
f 86//90 87//90 27//90
f 202//91 87//91 29//91 115//91
f 85//92 86//92 27//92 102//92
f 231//93 88//93 207//93
f 100//94 101//94 90//94 88//94
f 101//95 227//95 209//95 90//95
f 87//96 202//96 213//96 91//96
f 27//97 87//97 91//97 10//97
f 206//98 85//98 10//98 214//98
f 102//99 27//99 10//99
f 22//100 95//100 98//100 33//100
f 132//101 219//101 97//101 32//101
f 9//102 94//102 93//102 7//102
f 6//103 92//103 94//103 9//103
f 32//104 97//104 96//104 23//104
f 19//105 92//105 95//105 22//105
f 33//106 98//106 220//106 133//106
f 23//107 96//107 93//107 20//107
f 91//108 213//108 227//108 101//108
f 10//109 91//109 101//109 100//109
f 214//110 10//110 99//110 229//110
f 10//111 100//111 103//111
f 10//112 103//112 99//112
f 85//99 102//99 10//99
f 212//113 89//113 88//113 231//113
f 99//114 103//114 88//114 89//114
f 152//115 147//115 107//115 122//115
f 160//116 159//116 105//116
f 174//117 173//117 112//117 116//117
f 172//118 174//118 116//118 110//118
f 158//119 160//119 105//119 104//119
f 222//120 217//120 112//120 125//120
f 224//121 220//121 118//121 138//121
f 154//122 150//122 113//122 137//122
f 137//123 113//123 206//123 203//123
f 232//124 208//124 226//124
f 143//125 140//125 111//125 120//125
f 136//126 143//126 120//126 108//126
f 123//13 109//13 121//13 105//13
f 105//13 121//13 128//13 104//13
f 114//127 127//127 122//127 107//127
f 106//128 124//128 127//128 114//128
f 146//129 151//129 124//129 106//129
f 216//130 221//130 126//130 110//130
f 223//131 222//131 125//131 142//131
f 153//132 152//132 122//132 141//132
f 161//133 157//133 135//133 144//133
f 158//134 156//134 134//134 129//134
f 136//135 108//135 133//135 145//135
f 157//136 159//136 130//136 135//136
f 216//137 218//137 131//137 129//137
f 218//138 217//138 130//138 131//138
f 156//139 136//139 145//139 134//139
f 155//140 161//140 144//140 132//140
f 149//141 153//141 141//141 115//141
f 219//142 223//142 142//142 117//142
f 156//143 162//143 143//143 136//143
f 162//144 157//144 140//144 143//144
f 127//145 204//145 205//145 141//145 122//145
f 124//146 137//146 203//146 204//146 127//146
f 151//147 154//147 137//147 124//147
f 221//148 224//148 138//148 126//148
f 168//149 171//149 154//149 151//149
f 166//150 170//150 153//150 149//150
f 170//151 169//151 152//151 153//151
f 172//152 168//152 151//152 146//152
f 171//153 167//153 150//153 154//153
f 106//154 175//154 146//154
f 169//155 173//155 147//155 152//155
f 111//156 140//156 161//156 155//156
f 123//157 105//157 162//157 156//157
f 105//158 159//158 157//158
f 104//159 123//159 156//159 158//159
f 105//160 157//160 162//160
f 129//161 131//161 160//161 158//161
f 131//162 130//162 159//162 160//162
f 128//13 165//13 163//13 109//13
f 104//13 128//13 109//13 123//13
f 165//163 164//163 163//163
f 121//13 164//13 165//13 128//13
f 109//13 163//13 164//13 121//13
f 125//164 112//164 173//164 169//164
f 138//165 118//165 167//165 171//165
f 110//166 126//166 168//166 172//166
f 142//167 125//167 169//167 170//167
f 117//168 142//168 170//168 166//168
f 126//169 138//169 171//169 168//169
f 146//170 148//170 174//170 172//170
f 148//171 147//171 173//171 174//171
f 175//172 181//172 178//172 146//172
f 148//173 180//173 179//173 147//173
f 107//174 176//174 177//174 114//174
f 114//175 177//175 175//175 106//175
f 147//176 176//176 107//176
f 180//177 186//177 185//177 179//177
f 183//178 189//178 187//178 181//178
f 176//179 182//179 183//179 177//179
f 147//180 179//180 182//180 176//180
f 146//181 178//181 180//181 148//181
f 177//182 183//182 181//182 175//182
f 187//183 193//183 190//183 184//183
f 185//184 191//184 194//184 188//184
f 179//185 185//185 188//185 182//185
f 181//186 187//186 184//186 178//186
f 182//187 188//187 189//187 183//187
f 178//188 184//188 186//188 180//188
f 192//189 198//189 197//189 191//189
f 195//190 201//190 199//190 193//190
f 188//191 194//191 195//191 189//191
f 184//192 190//192 192//192 186//192
f 189//193 195//193 193//193 187//193
f 186//194 192//194 191//194 185//194
f 199//195 201//195 198//195 196//195
f 201//196 200//196 197//196 198//196
f 191//197 197//197 200//197 194//197
f 193//198 199//198 196//198 190//198
f 194//199 200//199 201//199 195//199
f 190//200 196//200 198//200 192//200
f 208//201 207//201 209//201 211//201
f 229//202 212//202 210//202 225//202
f 204//203 139//203 205//203
f 202//204 115//204 141//204 205//204
f 203//205 230//205 139//205 204//205
f 231//206 207//206 208//206
f 226//207 208//207 211//207 228//207
f 228//208 211//208 209//208 227//208
f 205//209 215//209 213//209 202//209
f 139//210 119//210 215//210 205//210
f 206//211 214//211 119//211 203//211
f 230//212 119//212 139//212
f 134//213 145//213 224//213 221//213
f 132//214 144//214 223//214 219//214
f 116//215 112//215 217//215 218//215
f 110//216 116//216 218//216 216//216
f 144//217 135//217 222//217 223//217
f 129//218 134//218 221//218 216//218
f 145//219 133//219 220//219 224//219
f 135//220 130//220 217//220 222//220
f 215//221 228//221 227//221 213//221
f 119//222 226//222 228//222 215//222
f 214//223 229//223 225//223 119//223
f 119//224 232//224 226//224
f 119//225 225//225 232//225
f 203//212 119//212 230//212
f 212//226 231//226 208//226 210//226
f 225//227 210//227 208//227 232//227
